<svg xmlns="http://www.w3.org/2000/svg" width="128" height="128" viewBox="0 0 128 128" role="img" aria-labelledby="title desc">
<title id="title">cry_headphones</title>
<desc id="desc">Original Neutrino emoji: cry with headphones overlay.</desc>
<ellipse cx="64" cy="65" rx="50" ry="52" fill="#E88A24"/>
<ellipse cx="64" cy="62" rx="54" ry="54" fill="#FFC647" stroke="#4B2A08" stroke-width="5"/>
<ellipse cx="45.5" cy="27" rx="17.5" ry="8" fill="#FFF8E7" opacity="0.45"/>
<path d="M 33 58 Q 42 66 54 58" fill="none" stroke="#2C1703" stroke-width="4" stroke-linecap="round" stroke-linejoin="round"/>
<path d="M 75 58 Q 86 66 97 58" fill="none" stroke="#2C1703" stroke-width="4" stroke-linecap="round" stroke-linejoin="round"/>
<path d="M 40 91 Q 64 71 88 91" fill="none" stroke="#2C1703" stroke-width="5" stroke-linecap="round" stroke-linejoin="round"/>
<polygon points="94,59 101.7,68.9 98.18,78.25 94,81 89.82,78.25 86.3,68.9" fill="#59BFFF" stroke="#4B2A08" stroke-width="1.5" stroke-linejoin="round"/>
<path d="M 27 64 C 28 25 100 25 101 64" fill="none" stroke="#4B2A08" stroke-width="5" stroke-linecap="round" stroke-linejoin="round"/>
<rect x="17" y="56" width="15" height="28" fill="#4B2A08" rx="6" ry="6"/>
<rect x="96" y="56" width="15" height="28" fill="#4B2A08" rx="6" ry="6"/>
</svg>
