<svg xmlns="http://www.w3.org/2000/svg" width="128" height="128" viewBox="0 0 128 128" role="img" aria-labelledby="title desc">
<title id="title">unamused_sparkle</title>
<desc id="desc">Original Neutrino emoji: unamused with sparkle accent.</desc>
<ellipse cx="64" cy="65" rx="50" ry="52" fill="#27BFB6"/>
<ellipse cx="64" cy="62" rx="54" ry="54" fill="#6FF2E5" stroke="#063E3D" stroke-width="5"/>
<ellipse cx="45.5" cy="27" rx="17.5" ry="8" fill="#F4FFFF" opacity="0.45"/>
<ellipse cx="42.5" cy="52.5" rx="9.5" ry="7.5" fill="#F4FFFF" stroke="#052928" stroke-width="3"/>
<ellipse cx="84.5" cy="52.5" rx="9.5" ry="7.5" fill="#F4FFFF" stroke="#052928" stroke-width="3"/>
<circle cx="39" cy="54" r="4" fill="#052928"/>
<circle cx="81" cy="54" r="4" fill="#052928"/>
<line x1="47" y1="81" x2="83" y2="76" stroke="#052928" stroke-width="4" stroke-linecap="round"/>
<polygon points="102.0,15.0 104.94,22.95 113.41,23.29 106.76,28.55 109.05,36.71 102.0,32.0 94.95,36.71 97.24,28.55 90.59,23.29 99.06,22.95" fill="#009DFF" stroke="#063E3D" stroke-width="2" stroke-linejoin="round"/>
<polygon points="24.0,85.0 25.76,89.57 30.66,89.84 26.85,92.93 28.11,97.66 24.0,95.0 19.89,97.66 21.15,92.93 17.34,89.84 22.24,89.57" fill="#009DFF" stroke="#063E3D" stroke-width="1.5" stroke-linejoin="round"/>
</svg>
