<?xml version="1.0" encoding="UTF-8"?>
<svg xmlns="http://www.w3.org/2000/svg" width="128" height="128" viewBox="0 0 128 128" role="img" aria-label="select all"><title>select all</title><style>:root{--ni-primary:#2B2F36;--ni-secondary:#667085;--ni-accent:#2563EB;--ni-overlay:#FFFFFF;--ni-surface:#FFFFFF;--ni-danger:#DC2626;--ni-warning:#D97706;--ni-success:#16A34A;}</style><rect x="24" y="24" width="80" height="80" rx="4" ry="4" stroke="var(--ni-primary)" fill="none" stroke-width="5" opacity="0.7"/><rect x="20" y="20" width="8" height="8" rx="2" ry="2" stroke="var(--ni-secondary)" fill="var(--ni-surface)" stroke-width="3"/><rect x="60" y="20" width="8" height="8" rx="2" ry="2" stroke="var(--ni-secondary)" fill="var(--ni-surface)" stroke-width="3"/><rect x="100" y="20" width="8" height="8" rx="2" ry="2" stroke="var(--ni-secondary)" fill="var(--ni-surface)" stroke-width="3"/><rect x="20" y="60" width="8" height="8" rx="2" ry="2" stroke="var(--ni-secondary)" fill="var(--ni-surface)" stroke-width="3"/><rect x="100" y="60" width="8" height="8" rx="2" ry="2" stroke="var(--ni-secondary)" fill="var(--ni-surface)" stroke-width="3"/><rect x="20" y="100" width="8" height="8" rx="2" ry="2" stroke="var(--ni-secondary)" fill="var(--ni-surface)" stroke-width="3"/><rect x="60" y="100" width="8" height="8" rx="2" ry="2" stroke="var(--ni-secondary)" fill="var(--ni-surface)" stroke-width="3"/><rect x="100" y="100" width="8" height="8" rx="2" ry="2" stroke="var(--ni-secondary)" fill="var(--ni-surface)" stroke-width="3"/><circle cx="94" cy="94" r="26" stroke="var(--ni-success)" fill="var(--ni-success)" stroke-width="2" fill-opacity="0.96"/><path d="M80 94L90 104L110 82" stroke="var(--ni-overlay)" fill="none" stroke-width="6" stroke-linecap="round" stroke-linejoin="round"/></svg>
