<svg xmlns="http://www.w3.org/2000/svg" width="128" height="128" viewBox="0 0 128 128" role="img" aria-labelledby="title desc">
<title id="title">frown_sparkle</title>
<desc id="desc">Original Neutrino emoji: frown with sparkle accent.</desc>
<ellipse cx="64" cy="65" rx="50" ry="52" fill="#F4B94A"/>
<ellipse cx="64" cy="62" rx="54" ry="54" fill="#FFD85A" stroke="#3A2C20" stroke-width="5"/>
<ellipse cx="45.5" cy="27" rx="17.5" ry="8" fill="#FFFFFF" opacity="0.45"/>
<circle cx="41.5" cy="51.5" r="6.5" fill="#2D2118"/>
<circle cx="86.5" cy="51.5" r="6.5" fill="#2D2118"/>
<path d="M 40 91 Q 64 71 88 91" fill="none" stroke="#2D2118" stroke-width="5" stroke-linecap="round" stroke-linejoin="round"/>
<polygon points="102.0,15.0 104.94,22.95 113.41,23.29 106.76,28.55 109.05,36.71 102.0,32.0 94.95,36.71 97.24,28.55 90.59,23.29 99.06,22.95" fill="#E94B66" stroke="#3A2C20" stroke-width="2" stroke-linejoin="round"/>
<polygon points="24.0,85.0 25.76,89.57 30.66,89.84 26.85,92.93 28.11,97.66 24.0,95.0 19.89,97.66 21.15,92.93 17.34,89.84 22.24,89.57" fill="#E94B66" stroke="#3A2C20" stroke-width="1.5" stroke-linejoin="round"/>
</svg>
