<?xml version="1.0" encoding="UTF-8"?>
<svg xmlns="http://www.w3.org/2000/svg" width="128" height="128" viewBox="0 0 128 128" role="img" aria-label="folder link"><title>folder link</title><path d="M14 38Q14 30 22 30H48L58 42H106Q114 42 114 50V100Q114 108 106 108H22Q14 108 14 100Z" stroke="#E5E7EB" fill="#111827" stroke-width="8" stroke-linecap="round" stroke-linejoin="round" fill-opacity="0.08"/><line x1="20" y1="54" x2="108" y2="54" stroke="#9CA3AF" stroke-width="6" stroke-linecap="round"/><circle cx="94" cy="94" r="26" stroke="#F59E0B" fill="#F59E0B" stroke-width="2" fill-opacity="0.96"/><path d="M85 92Q78 92 78 99Q78 106 85 106H93" stroke="#111827" fill="none" stroke-width="4" stroke-linecap="round" stroke-linejoin="round"/><path d="M95 82H103Q110 82 110 89Q110 96 103 96H95" stroke="#111827" fill="none" stroke-width="4" stroke-linecap="round" stroke-linejoin="round"/><line x1="88" y1="94" x2="100" y2="94" stroke="#111827" stroke-width="4" stroke-linecap="round"/></svg>
