<?xml version="1.0" encoding="UTF-8"?>
<svg xmlns="http://www.w3.org/2000/svg" width="128" height="128" viewBox="0 0 128 128" role="img" aria-label="select all"><title>select all</title><rect x="24" y="24" width="80" height="80" rx="4" ry="4" stroke="#E5E7EB" fill="none" stroke-width="5" opacity="0.7"/><rect x="20" y="20" width="8" height="8" rx="2" ry="2" stroke="#9CA3AF" fill="#111827" stroke-width="3"/><rect x="60" y="20" width="8" height="8" rx="2" ry="2" stroke="#9CA3AF" fill="#111827" stroke-width="3"/><rect x="100" y="20" width="8" height="8" rx="2" ry="2" stroke="#9CA3AF" fill="#111827" stroke-width="3"/><rect x="20" y="60" width="8" height="8" rx="2" ry="2" stroke="#9CA3AF" fill="#111827" stroke-width="3"/><rect x="100" y="60" width="8" height="8" rx="2" ry="2" stroke="#9CA3AF" fill="#111827" stroke-width="3"/><rect x="20" y="100" width="8" height="8" rx="2" ry="2" stroke="#9CA3AF" fill="#111827" stroke-width="3"/><rect x="60" y="100" width="8" height="8" rx="2" ry="2" stroke="#9CA3AF" fill="#111827" stroke-width="3"/><rect x="100" y="100" width="8" height="8" rx="2" ry="2" stroke="#9CA3AF" fill="#111827" stroke-width="3"/><circle cx="94" cy="94" r="26" stroke="#86EFAC" fill="#86EFAC" stroke-width="2" fill-opacity="0.96"/><path d="M80 94L90 104L110 82" stroke="#111827" fill="none" stroke-width="6" stroke-linecap="round" stroke-linejoin="round"/></svg>
