<?xml version="1.0" encoding="UTF-8"?>
<svg xmlns="http://www.w3.org/2000/svg" width="128" height="128" viewBox="0 0 128 128" role="img" aria-label="hand"><title>hand</title><path d="M46 72V34Q46 26 54 26Q62 26 62 34V62V28Q62 20 70 20Q78 20 78 28V64V38Q78 30 86 30Q94 30 94 38V72Q100 62 108 68Q112 72 108 80L96 104Q90 116 72 116H56Q42 116 34 104L22 82Q18 74 26 70Q34 66 40 78Z" stroke="#24123A" fill="#F5F3FF" stroke-width="8" stroke-linecap="round" stroke-linejoin="round" fill-opacity="0.06"/></svg>
