<?xml version="1.0" encoding="UTF-8"?>
<svg xmlns="http://www.w3.org/2000/svg" width="128" height="128" viewBox="0 0 128 128" role="img" aria-label="select none"><title>select none</title><rect x="24" y="24" width="80" height="80" rx="4" ry="4" stroke="#24123A" fill="none" stroke-width="5" opacity="0.7"/><rect x="20" y="20" width="8" height="8" rx="2" ry="2" stroke="#6D28D9" fill="#F5F3FF" stroke-width="3"/><rect x="60" y="20" width="8" height="8" rx="2" ry="2" stroke="#6D28D9" fill="#F5F3FF" stroke-width="3"/><rect x="100" y="20" width="8" height="8" rx="2" ry="2" stroke="#6D28D9" fill="#F5F3FF" stroke-width="3"/><rect x="20" y="60" width="8" height="8" rx="2" ry="2" stroke="#6D28D9" fill="#F5F3FF" stroke-width="3"/><rect x="100" y="60" width="8" height="8" rx="2" ry="2" stroke="#6D28D9" fill="#F5F3FF" stroke-width="3"/><rect x="20" y="100" width="8" height="8" rx="2" ry="2" stroke="#6D28D9" fill="#F5F3FF" stroke-width="3"/><rect x="60" y="100" width="8" height="8" rx="2" ry="2" stroke="#6D28D9" fill="#F5F3FF" stroke-width="3"/><rect x="100" y="100" width="8" height="8" rx="2" ry="2" stroke="#6D28D9" fill="#F5F3FF" stroke-width="3"/><circle cx="94" cy="94" r="26" stroke="#E11D48" fill="#E11D48" stroke-width="2" fill-opacity="0.96"/><line x1="82" y1="82" x2="106" y2="106" stroke="#FFFFFF" stroke-width="6" stroke-linecap="round"/><line x1="106" y1="82" x2="82" y2="106" stroke="#FFFFFF" stroke-width="6" stroke-linecap="round"/></svg>
