<svg xmlns="http://www.w3.org/2000/svg" width="128" height="128" viewBox="0 0 128 128" role="img" aria-labelledby="title desc">
<title id="title">joy_tears_soft_shadow</title>
<desc id="desc">Original Neutrino emoji: joy tears with extra soft drop shadow.</desc>
<ellipse cx="67" cy="69" rx="49" ry="50" fill="#000000" opacity="0.22"/>
<ellipse cx="64" cy="65" rx="50" ry="52" fill="#8B68D8"/>
<ellipse cx="64" cy="62" rx="54" ry="54" fill="#C7A8FF" stroke="#2C1E4A" stroke-width="5"/>
<ellipse cx="45.5" cy="27" rx="17.5" ry="8" fill="#FFF8FE" opacity="0.45"/>
<polyline points="33,47 48,58 54,47" fill="none" stroke="#211536" stroke-width="4" stroke-linecap="round" stroke-linejoin="round"/>
<polyline points="75,47 84,58 97,47" fill="none" stroke="#211536" stroke-width="4" stroke-linecap="round" stroke-linejoin="round"/>
<ellipse cx="64" cy="83.5" rx="28" ry="20.5" fill="#211536"/>
<rect x="41" y="65" width="46" height="12" fill="#FFFFFF" rx="4" ry="4"/>
<ellipse cx="64" cy="95" rx="18" ry="10" fill="#FF6FB5"/>
<polygon points="29,58 35.3,66.1 32.42,73.75 29,76 25.58,73.75 22.7,66.1" fill="#93D9FF" stroke="#2C1E4A" stroke-width="1.5" stroke-linejoin="round"/>
<polygon points="99,58 105.3,66.1 102.42,73.75 99,76 95.58,73.75 92.7,66.1" fill="#93D9FF" stroke="#2C1E4A" stroke-width="1.5" stroke-linejoin="round"/>
</svg>
