<svg xmlns="http://www.w3.org/2000/svg" width="128" height="128" viewBox="0 0 128 128" role="img" aria-labelledby="title desc">
<title id="title">nerd_crown</title>
<desc id="desc">Original Neutrino emoji: nerd with small crown.</desc>
<polygon points="36,22 45,5 58,22 64,5 72,22 84,5 93,22 91,38 38,38" fill="#FFD34D" stroke="#2C1E4A" stroke-width="3" stroke-linejoin="round"/>
<ellipse cx="64" cy="65" rx="50" ry="52" fill="#8B68D8"/>
<ellipse cx="64" cy="62" rx="54" ry="54" fill="#C7A8FF" stroke="#2C1E4A" stroke-width="5"/>
<ellipse cx="45.5" cy="27" rx="17.5" ry="8" fill="#FFF8FE" opacity="0.45"/>
<ellipse cx="43.5" cy="53" rx="14.5" ry="13" fill="#FFF8FE" stroke="#211536" stroke-width="4"/>
<ellipse cx="84.5" cy="53" rx="14.5" ry="13" fill="#FFF8FE" stroke="#211536" stroke-width="4"/>
<line x1="58" y1="53" x2="70" y2="53" stroke="#211536" stroke-width="3" stroke-linecap="round"/>
<circle cx="43.5" cy="53.5" r="3.5" fill="#211536"/>
<circle cx="84.5" cy="53.5" r="3.5" fill="#211536"/>
<rect x="39" y="68" width="50" height="23" fill="#FFFFFF" rx="9" ry="9" stroke="#211536" stroke-width="4"/>
<line x1="39" y1="79" x2="89" y2="79" stroke="#211536" stroke-width="2" stroke-linecap="round"/>
</svg>
