<svg xmlns="http://www.w3.org/2000/svg" width="128" height="128" viewBox="0 0 128 128" role="img" aria-labelledby="title desc">
<title id="title">silly_sparkle</title>
<desc id="desc">Original Neutrino emoji: silly with sparkle accent.</desc>
<ellipse cx="64" cy="65" rx="50" ry="52" fill="#8B68D8"/>
<ellipse cx="64" cy="62" rx="54" ry="54" fill="#C7A8FF" stroke="#2C1E4A" stroke-width="5"/>
<ellipse cx="45.5" cy="27" rx="17.5" ry="8" fill="#FFF8FE" opacity="0.45"/>
<circle cx="41.5" cy="51.5" r="6.5" fill="#211536"/>
<path d="M 77 53 Q 86 61 98 53" fill="none" stroke="#211536" stroke-width="4" stroke-linecap="round" stroke-linejoin="round"/>
<ellipse cx="64" cy="83.5" rx="23" ry="17.5" fill="#211536"/>
<rect x="45" y="66" width="38" height="10" fill="#FFFFFF" rx="4" ry="4"/>
<ellipse cx="64" cy="94" rx="12" ry="14" fill="#FF6FB5" stroke="#211536" stroke-width="2"/>
<polygon points="102.0,15.0 104.94,22.95 113.41,23.29 106.76,28.55 109.05,36.71 102.0,32.0 94.95,36.71 97.24,28.55 90.59,23.29 99.06,22.95" fill="#FF72D2" stroke="#2C1E4A" stroke-width="2" stroke-linejoin="round"/>
<polygon points="24.0,85.0 25.76,89.57 30.66,89.84 26.85,92.93 28.11,97.66 24.0,95.0 19.89,97.66 21.15,92.93 17.34,89.84 22.24,89.57" fill="#FF72D2" stroke="#2C1E4A" stroke-width="1.5" stroke-linejoin="round"/>
</svg>
