<svg xmlns="http://www.w3.org/2000/svg" width="128" height="128" viewBox="0 0 128 128" role="img" aria-labelledby="title desc">
<title id="title">heart_eyes_neutrino_orbit</title>
<desc id="desc">Original Neutrino emoji: heart eyes with Neutrino orbit mark.</desc>
<ellipse cx="64" cy="65" rx="50" ry="52" fill="#F079B1"/>
<ellipse cx="64" cy="62" rx="54" ry="54" fill="#FFB7D5" stroke="#5A1B37" stroke-width="5"/>
<ellipse cx="45.5" cy="27" rx="17.5" ry="8" fill="#FFF7FB" opacity="0.45"/>
<polygon points="42.0,48.56 42.06,48.15 42.44,47.04 43.38,45.63 44.92,44.42 46.94,43.82 49.14,44.09 51.13,45.24 52.51,47.06 53.0,49.25 52.51,51.54 51.13,53.73 49.14,55.78 46.94,57.69 44.92,59.48 43.38,61.12 42.44,62.46 42.06,63.37 42.0,63.69 41.94,63.37 41.56,62.46 40.62,61.12 39.08,59.48 37.06,57.69 34.86,55.78 32.87,53.73 31.49,51.54 31.0,49.25 31.49,47.06 32.87,45.24 34.86,44.09 37.06,43.82 39.08,44.42 40.62,45.63 41.56,47.04 41.94,48.15" fill="#F54767" stroke="#5A1B37" stroke-width="2" stroke-linejoin="round"/>
<polygon points="86.0,48.56 86.06,48.15 86.44,47.04 87.38,45.63 88.92,44.42 90.94,43.82 93.14,44.09 95.13,45.24 96.51,47.06 97.0,49.25 96.51,51.54 95.13,53.73 93.14,55.78 90.94,57.69 88.92,59.48 87.38,61.12 86.44,62.46 86.06,63.37 86.0,63.69 85.94,63.37 85.56,62.46 84.62,61.12 83.08,59.48 81.06,57.69 78.86,55.78 76.87,53.73 75.49,51.54 75.0,49.25 75.49,47.06 76.87,45.24 78.86,44.09 81.06,43.82 83.08,44.42 84.62,45.63 85.56,47.04 85.94,48.15" fill="#F54767" stroke="#5A1B37" stroke-width="2" stroke-linejoin="round"/>
<path d="M 38 76 Q 64 101 90 76" fill="none" stroke="#341020" stroke-width="5" stroke-linecap="round" stroke-linejoin="round"/>
<path d="M 18 74 C 38 31 95 25 111 54" fill="none" stroke="#FF2E9E" stroke-width="3" stroke-linecap="round" stroke-linejoin="round"/>
<path d="M 17 57 C 45 100 93 104 111 73" fill="none" stroke="#FF2E9E" stroke-width="3" stroke-linecap="round" stroke-linejoin="round"/>
<circle cx="99" cy="37" r="5" fill="#FFF7FB" stroke="#5A1B37" stroke-width="2"/>
</svg>
