<svg xmlns="http://www.w3.org/2000/svg" width="128" height="128" viewBox="0 0 128 128" role="img" aria-labelledby="title desc">
<title id="title">joy_tears_neutrino_orbit</title>
<desc id="desc">Original Neutrino emoji: joy tears with Neutrino orbit mark.</desc>
<ellipse cx="64" cy="65" rx="50" ry="52" fill="#F079B1"/>
<ellipse cx="64" cy="62" rx="54" ry="54" fill="#FFB7D5" stroke="#5A1B37" stroke-width="5"/>
<ellipse cx="45.5" cy="27" rx="17.5" ry="8" fill="#FFF7FB" opacity="0.45"/>
<polyline points="33,47 48,58 54,47" fill="none" stroke="#341020" stroke-width="4" stroke-linecap="round" stroke-linejoin="round"/>
<polyline points="75,47 84,58 97,47" fill="none" stroke="#341020" stroke-width="4" stroke-linecap="round" stroke-linejoin="round"/>
<ellipse cx="64" cy="83.5" rx="28" ry="20.5" fill="#341020"/>
<rect x="41" y="65" width="46" height="12" fill="#FFFFFF" rx="4" ry="4"/>
<ellipse cx="64" cy="95" rx="18" ry="10" fill="#E92575"/>
<polygon points="29,58 35.3,66.1 32.42,73.75 29,76 25.58,73.75 22.7,66.1" fill="#6ACBFF" stroke="#5A1B37" stroke-width="1.5" stroke-linejoin="round"/>
<polygon points="99,58 105.3,66.1 102.42,73.75 99,76 95.58,73.75 92.7,66.1" fill="#6ACBFF" stroke="#5A1B37" stroke-width="1.5" stroke-linejoin="round"/>
<path d="M 18 74 C 38 31 95 25 111 54" fill="none" stroke="#FF2E9E" stroke-width="3" stroke-linecap="round" stroke-linejoin="round"/>
<path d="M 17 57 C 45 100 93 104 111 73" fill="none" stroke="#FF2E9E" stroke-width="3" stroke-linecap="round" stroke-linejoin="round"/>
<circle cx="99" cy="37" r="5" fill="#FFF7FB" stroke="#5A1B37" stroke-width="2"/>
</svg>
