<svg xmlns="http://www.w3.org/2000/svg" width="128" height="128" viewBox="0 0 128 128" role="img" aria-labelledby="title desc">
<title id="title">wide_grin_sparkle</title>
<desc id="desc">Original Neutrino emoji: wide grin with sparkle accent.</desc>
<ellipse cx="64" cy="65" rx="50" ry="52" fill="#F079B1"/>
<ellipse cx="64" cy="62" rx="54" ry="54" fill="#FFB7D5" stroke="#5A1B37" stroke-width="5"/>
<ellipse cx="45.5" cy="27" rx="17.5" ry="8" fill="#FFF7FB" opacity="0.45"/>
<ellipse cx="41.5" cy="52" rx="7.5" ry="9" fill="#341020"/>
<ellipse cx="86.5" cy="52" rx="7.5" ry="9" fill="#341020"/>
<rect x="32" y="66" width="64" height="30" fill="#FFFFFF" rx="10" ry="10" stroke="#341020" stroke-width="4"/>
<line x1="34" y1="81" x2="94" y2="81" stroke="#341020" stroke-width="2" stroke-linecap="round"/>
<line x1="50" y1="67" x2="50" y2="95" stroke="#341020" stroke-width="1.5" stroke-linecap="round"/>
<line x1="78" y1="67" x2="78" y2="95" stroke="#341020" stroke-width="1.5" stroke-linecap="round"/>
<polygon points="102.0,15.0 104.94,22.95 113.41,23.29 106.76,28.55 109.05,36.71 102.0,32.0 94.95,36.71 97.24,28.55 90.59,23.29 99.06,22.95" fill="#FF2E9E" stroke="#5A1B37" stroke-width="2" stroke-linejoin="round"/>
<polygon points="24.0,85.0 25.76,89.57 30.66,89.84 26.85,92.93 28.11,97.66 24.0,95.0 19.89,97.66 21.15,92.93 17.34,89.84 22.24,89.57" fill="#FF2E9E" stroke="#5A1B37" stroke-width="1.5" stroke-linejoin="round"/>
</svg>
