<svg xmlns="http://www.w3.org/2000/svg" width="128" height="128" viewBox="0 0 128 128" role="img" aria-labelledby="title desc">
<title id="title">cry_crown</title>
<desc id="desc">Original Neutrino emoji: cry with small crown.</desc>
<polygon points="36,22 45,5 58,22 64,5 72,22 84,5 93,22 91,38 38,38" fill="#FFD34D" stroke="#4A140A" stroke-width="3" stroke-linejoin="round"/>
<ellipse cx="64" cy="65" rx="50" ry="52" fill="#D94B2E"/>
<ellipse cx="64" cy="62" rx="54" ry="54" fill="#FF8759" stroke="#4A140A" stroke-width="5"/>
<ellipse cx="45.5" cy="27" rx="17.5" ry="8" fill="#FFF5ED" opacity="0.45"/>
<path d="M 33 58 Q 42 66 54 58" fill="none" stroke="#2D0B05" stroke-width="4" stroke-linecap="round" stroke-linejoin="round"/>
<path d="M 75 58 Q 86 66 97 58" fill="none" stroke="#2D0B05" stroke-width="4" stroke-linecap="round" stroke-linejoin="round"/>
<path d="M 40 91 Q 64 71 88 91" fill="none" stroke="#2D0B05" stroke-width="5" stroke-linecap="round" stroke-linejoin="round"/>
<polygon points="94,59 101.7,68.9 98.18,78.25 94,81 89.82,78.25 86.3,68.9" fill="#4DBEFF" stroke="#4A140A" stroke-width="1.5" stroke-linejoin="round"/>
</svg>
