<svg xmlns="http://www.w3.org/2000/svg" width="128" height="128" viewBox="0 0 128 128" role="img" aria-labelledby="title desc">
<title id="title">nerd_sparkle</title>
<desc id="desc">Original Neutrino emoji: nerd with sparkle accent.</desc>
<ellipse cx="64" cy="65" rx="50" ry="52" fill="#D94B2E"/>
<ellipse cx="64" cy="62" rx="54" ry="54" fill="#FF8759" stroke="#4A140A" stroke-width="5"/>
<ellipse cx="45.5" cy="27" rx="17.5" ry="8" fill="#FFF5ED" opacity="0.45"/>
<ellipse cx="43.5" cy="53" rx="14.5" ry="13" fill="#FFF5ED" stroke="#2D0B05" stroke-width="4"/>
<ellipse cx="84.5" cy="53" rx="14.5" ry="13" fill="#FFF5ED" stroke="#2D0B05" stroke-width="4"/>
<line x1="58" y1="53" x2="70" y2="53" stroke="#2D0B05" stroke-width="3" stroke-linecap="round"/>
<circle cx="43.5" cy="53.5" r="3.5" fill="#2D0B05"/>
<circle cx="84.5" cy="53.5" r="3.5" fill="#2D0B05"/>
<rect x="39" y="68" width="50" height="23" fill="#FFFFFF" rx="9" ry="9" stroke="#2D0B05" stroke-width="4"/>
<line x1="39" y1="79" x2="89" y2="79" stroke="#2D0B05" stroke-width="2" stroke-linecap="round"/>
<polygon points="102.0,15.0 104.94,22.95 113.41,23.29 106.76,28.55 109.05,36.71 102.0,32.0 94.95,36.71 97.24,28.55 90.59,23.29 99.06,22.95" fill="#FFD34D" stroke="#4A140A" stroke-width="2" stroke-linejoin="round"/>
<polygon points="24.0,85.0 25.76,89.57 30.66,89.84 26.85,92.93 28.11,97.66 24.0,95.0 19.89,97.66 21.15,92.93 17.34,89.84 22.24,89.57" fill="#FFD34D" stroke="#4A140A" stroke-width="1.5" stroke-linejoin="round"/>
</svg>
