<svg xmlns="http://www.w3.org/2000/svg" width="128" height="128" viewBox="0 0 128 128" role="img" aria-labelledby="title desc">
<title id="title">wide_grin_headphones</title>
<desc id="desc">Original Neutrino emoji: wide grin with headphones overlay.</desc>
<ellipse cx="64" cy="65" rx="50" ry="52" fill="#58C983"/>
<ellipse cx="64" cy="62" rx="54" ry="54" fill="#A8F0BF" stroke="#163B24" stroke-width="5"/>
<ellipse cx="45.5" cy="27" rx="17.5" ry="8" fill="#F7FFF8" opacity="0.45"/>
<ellipse cx="41.5" cy="52" rx="7.5" ry="9" fill="#0F2A19"/>
<ellipse cx="86.5" cy="52" rx="7.5" ry="9" fill="#0F2A19"/>
<rect x="32" y="66" width="64" height="30" fill="#FFFFFF" rx="10" ry="10" stroke="#0F2A19" stroke-width="4"/>
<line x1="34" y1="81" x2="94" y2="81" stroke="#0F2A19" stroke-width="2" stroke-linecap="round"/>
<line x1="50" y1="67" x2="50" y2="95" stroke="#0F2A19" stroke-width="1.5" stroke-linecap="round"/>
<line x1="78" y1="67" x2="78" y2="95" stroke="#0F2A19" stroke-width="1.5" stroke-linecap="round"/>
<path d="M 27 64 C 28 25 100 25 101 64" fill="none" stroke="#163B24" stroke-width="5" stroke-linecap="round" stroke-linejoin="round"/>
<rect x="17" y="56" width="15" height="28" fill="#163B24" rx="6" ry="6"/>
<rect x="96" y="56" width="15" height="28" fill="#163B24" rx="6" ry="6"/>
</svg>
