<svg xmlns="http://www.w3.org/2000/svg" width="128" height="128" viewBox="0 0 128 128" role="img" aria-labelledby="title desc">
<title id="title">rofl_headphones</title>
<desc id="desc">Original Neutrino emoji: rofl with headphones overlay.</desc>
<ellipse cx="64" cy="65" rx="50" ry="52" fill="#C7C7C7"/>
<ellipse cx="64" cy="62" rx="54" ry="54" fill="#F2F2F2" stroke="#161616" stroke-width="5"/>
<ellipse cx="45.5" cy="27" rx="17.5" ry="8" fill="#FFFFFF" opacity="0.45"/>
<polyline points="33,47 48,58 54,47" fill="none" stroke="#111111" stroke-width="4" stroke-linecap="round" stroke-linejoin="round"/>
<polyline points="75,47 84,58 97,47" fill="none" stroke="#111111" stroke-width="4" stroke-linecap="round" stroke-linejoin="round"/>
<ellipse cx="64" cy="83.5" rx="28" ry="20.5" fill="#111111"/>
<rect x="41" y="65" width="46" height="12" fill="#FFFFFF" rx="4" ry="4"/>
<ellipse cx="64" cy="95" rx="18" ry="10" fill="#6A6A6A"/>
<path d="M 27 64 C 28 25 100 25 101 64" fill="none" stroke="#161616" stroke-width="5" stroke-linecap="round" stroke-linejoin="round"/>
<rect x="17" y="56" width="15" height="28" fill="#161616" rx="6" ry="6"/>
<rect x="96" y="56" width="15" height="28" fill="#161616" rx="6" ry="6"/>
</svg>
