<svg xmlns="http://www.w3.org/2000/svg" width="128" height="128" viewBox="0 0 128 128" role="img" aria-labelledby="title desc">
<title id="title">dizzy_tiny_horns</title>
<desc id="desc">Original Neutrino emoji: dizzy with small horns.</desc>
<polygon points="27,23 38,3 47,31" fill="#9FD6FF" stroke="#E8EDF2" stroke-width="3" stroke-linejoin="round"/>
<polygon points="81,31 90,3 101,23" fill="#9FD6FF" stroke="#E8EDF2" stroke-width="3" stroke-linejoin="round"/>
<ellipse cx="64" cy="65" rx="50" ry="52" fill="#303943"/>
<ellipse cx="64" cy="62" rx="54" ry="54" fill="#515E6B" stroke="#E8EDF2" stroke-width="5"/>
<ellipse cx="45.5" cy="27" rx="17.5" ry="8" fill="#0D1218" opacity="0.45"/>
<polyline points="43.0,52.0 43.0,52.9 42.1,53.7 40.7,53.6 39.6,52.3 39.7,50.4 41.3,49.0 43.8,49.0 45.6,50.9 45.7,53.9 43.6,56.2 40.1,56.5 37.3,54.1 36.7,50.2 39.2,46.8 43.6,46.0 47.6,48.5 48.8,53.3 46.3,57.9 41.1,59.6 35.9,57.2 33.7,51.6 35.9,45.8 41.7,43.0 48.2,44.9 51.7,51.0" fill="none" stroke="#F5F7FA" stroke-width="3" stroke-linecap="round" stroke-linejoin="round"/>
<polyline points="87.0,52.0 87.0,52.9 86.1,53.7 84.7,53.6 83.6,52.3 83.7,50.4 85.3,49.0 87.8,49.0 89.6,50.9 89.7,53.9 87.6,56.2 84.1,56.5 81.3,54.1 80.7,50.2 83.2,46.8 87.6,46.0 91.6,48.5 92.8,53.3 90.3,57.9 85.1,59.6 79.9,57.2 77.7,51.6 79.9,45.8 85.7,43.0 92.2,44.9 95.7,51.0" fill="none" stroke="#F5F7FA" stroke-width="3" stroke-linecap="round" stroke-linejoin="round"/>
<circle cx="64" cy="79" r="9" fill="#F5F7FA"/>
</svg>
