<svg xmlns="http://www.w3.org/2000/svg" width="128" height="128" viewBox="0 0 128 128" role="img" aria-labelledby="title desc">
<title id="title">nerd_headphones</title>
<desc id="desc">Original Neutrino emoji: nerd with headphones overlay.</desc>
<ellipse cx="64" cy="65" rx="50" ry="52" fill="#303943"/>
<ellipse cx="64" cy="62" rx="54" ry="54" fill="#515E6B" stroke="#E8EDF2" stroke-width="5"/>
<ellipse cx="45.5" cy="27" rx="17.5" ry="8" fill="#0D1218" opacity="0.45"/>
<ellipse cx="43.5" cy="53" rx="14.5" ry="13" fill="#0D1218" stroke="#F5F7FA" stroke-width="4"/>
<ellipse cx="84.5" cy="53" rx="14.5" ry="13" fill="#0D1218" stroke="#F5F7FA" stroke-width="4"/>
<line x1="58" y1="53" x2="70" y2="53" stroke="#F5F7FA" stroke-width="3" stroke-linecap="round"/>
<circle cx="43.5" cy="53.5" r="3.5" fill="#F5F7FA"/>
<circle cx="84.5" cy="53.5" r="3.5" fill="#F5F7FA"/>
<rect x="39" y="68" width="50" height="23" fill="#FFFFFF" rx="9" ry="9" stroke="#F5F7FA" stroke-width="4"/>
<line x1="39" y1="79" x2="89" y2="79" stroke="#F5F7FA" stroke-width="2" stroke-linecap="round"/>
<path d="M 27 64 C 28 25 100 25 101 64" fill="none" stroke="#E8EDF2" stroke-width="5" stroke-linecap="round" stroke-linejoin="round"/>
<rect x="17" y="56" width="15" height="28" fill="#E8EDF2" rx="6" ry="6"/>
<rect x="96" y="56" width="15" height="28" fill="#E8EDF2" rx="6" ry="6"/>
</svg>
