<?xml version="1.0" encoding="UTF-8"?>
<svg xmlns="http://www.w3.org/2000/svg" width="128" height="128" viewBox="0 0 128 128" role="img" aria-label="thumbnail view"><title>thumbnail view</title><rect x="24" y="24" width="20" height="20" rx="4" ry="4" stroke="#0F172A" fill="#EEF6FF" stroke-width="6" fill-opacity="0.04"/><rect x="24" y="54" width="20" height="20" rx="4" ry="4" stroke="#0F172A" fill="#EEF6FF" stroke-width="6" fill-opacity="0.04"/><rect x="24" y="84" width="20" height="20" rx="4" ry="4" stroke="#0F172A" fill="#EEF6FF" stroke-width="6" fill-opacity="0.04"/><rect x="54" y="24" width="20" height="20" rx="4" ry="4" stroke="#0F172A" fill="#EEF6FF" stroke-width="6" fill-opacity="0.04"/><rect x="54" y="54" width="20" height="20" rx="4" ry="4" stroke="#0F172A" fill="#EEF6FF" stroke-width="6" fill-opacity="0.04"/><rect x="54" y="84" width="20" height="20" rx="4" ry="4" stroke="#0F172A" fill="#EEF6FF" stroke-width="6" fill-opacity="0.04"/><rect x="84" y="24" width="20" height="20" rx="4" ry="4" stroke="#0F172A" fill="#EEF6FF" stroke-width="6" fill-opacity="0.04"/><rect x="84" y="54" width="20" height="20" rx="4" ry="4" stroke="#0F172A" fill="#EEF6FF" stroke-width="6" fill-opacity="0.04"/><rect x="84" y="84" width="20" height="20" rx="4" ry="4" stroke="#0F172A" fill="#EEF6FF" stroke-width="6" fill-opacity="0.04"/><circle cx="94" cy="94" r="26" stroke="#3B82F6" fill="#3B82F6" stroke-width="2" fill-opacity="0.96"/><line x1="94" y1="80" x2="94" y2="108" stroke="#FFFFFF" stroke-width="6" stroke-linecap="round"/><line x1="80" y1="94" x2="108" y2="94" stroke="#FFFFFF" stroke-width="6" stroke-linecap="round"/></svg>
