<svg xmlns="http://www.w3.org/2000/svg" width="128" height="128" viewBox="0 0 128 128" role="img" aria-labelledby="title desc">
<title id="title">snowboarding stripe 7</title>
<desc id="desc">Original Neutrino activities emoji icon: snowboarding with stripe styling.</desc>
<style>:root{--nt-primary:#FFD85A;--nt-secondary:#F4B94A;--nt-accent:#E94B66;--nt-accent2:#FFFFFF;--nt-outline:#3A2C20;--nt-feature:#2D2118;--nt-skin:#F2C6A0;--nt-skin2:#DFA06E;--nt-green:#65B95A;--nt-blue:#56A8E8;--nt-red:#E85B4B;--nt-purple:#9C70E8;--nt-orange:#F27B35;--nt-metal:#8E9BAA;--nt-brown:#8B5A2B;--nt-white:#FFF8E7;--nt-dark:#1A1613;--nt-bg:#FFFFFF} text{font-family:Arial,DejaVu Sans,sans-serif;font-weight:700}</style>
<ellipse cx="64.00" cy="106.00" rx="45.00" ry="14.00" fill="var(--nt-dark)" opacity="0.12"/>
<ellipse cx="64.00" cy="28.00" rx="10.00" ry="10.00" fill="var(--nt-skin)" stroke="var(--nt-outline)" stroke-width="3.00"/>
<polyline points="64.00,39.00 64.00,73.00" fill="none" stroke="var(--nt-primary)" stroke-width="8.00" stroke-linecap="round" stroke-linejoin="round"/>
<polyline points="64.00,50.00 38.00,28.00" fill="none" stroke="var(--nt-primary)" stroke-width="6.00" stroke-linecap="round" stroke-linejoin="round"/>
<polyline points="64.00,50.00 91.00,28.00" fill="none" stroke="var(--nt-primary)" stroke-width="6.00" stroke-linecap="round" stroke-linejoin="round"/>
<polyline points="64.00,73.00 48.00,106.00" fill="none" stroke="var(--nt-primary)" stroke-width="6.00" stroke-linecap="round" stroke-linejoin="round"/>
<polyline points="64.00,73.00 83.00,106.00" fill="none" stroke="var(--nt-primary)" stroke-width="6.00" stroke-linecap="round" stroke-linejoin="round"/>
<polygon points="31.00,15.00 33.35,20.76 39.56,21.22 34.80,25.24 36.29,31.28 31.00,28.00 25.71,31.28 27.20,25.24 22.44,21.22 28.65,20.76" fill="var(--nt-accent)"/>
<polygon points="99.00,14.00 101.35,19.76 107.56,20.22 102.80,24.24 104.29,30.28 99.00,27.00 93.71,30.28 95.20,24.24 90.44,20.22 96.65,19.76" fill="var(--nt-green)"/>
<text x="64.00" y="120.00" font-size="8.00" text-anchor="middle" dominant-baseline="central" fill="var(--nt-feature)">SN</text>
<ellipse cx="107.50" cy="106.50" rx="16.50" ry="16.50" fill="var(--nt-accent2)" stroke="var(--nt-outline)" stroke-width="3.00"/>
<ellipse cx="107.50" cy="106.50" rx="11.50" ry="11.50" fill="var(--nt-accent)"/>
<text x="107.50" y="106.50" font-size="16.00" text-anchor="middle" dominant-baseline="central" fill="var(--nt-accent2)">≋</text>
</svg>
