<svg xmlns="http://www.w3.org/2000/svg" width="128" height="128" viewBox="0 0 128 128" role="img" aria-labelledby="title desc">
<title id="title">brain leaf 5</title>
<desc id="desc">Original Neutrino body parts emoji icon: brain with leaf styling.</desc>
<style>:root{--nt-primary:#FFD85A;--nt-secondary:#F4B94A;--nt-accent:#E94B66;--nt-accent2:#FFFFFF;--nt-outline:#3A2C20;--nt-feature:#2D2118;--nt-skin:#F2C6A0;--nt-skin2:#DFA06E;--nt-green:#65B95A;--nt-blue:#56A8E8;--nt-red:#E85B4B;--nt-purple:#9C70E8;--nt-orange:#F27B35;--nt-metal:#8E9BAA;--nt-brown:#8B5A2B;--nt-white:#FFF8E7;--nt-dark:#1A1613;--nt-bg:#FFFFFF} text{font-family:Arial,DejaVu Sans,sans-serif;font-weight:700}</style>
<ellipse cx="64.00" cy="106.00" rx="45.00" ry="14.00" fill="var(--nt-dark)" opacity="0.12"/>
<polygon points="64.00,52.25 64.15,51.19 65.12,48.38 67.50,44.80 71.44,41.70 76.59,40.18 82.19,40.88 87.23,43.79 90.74,48.42 92.00,54.00 90.74,59.82 87.23,65.41 82.19,70.62 76.59,75.49 71.44,80.05 67.50,84.20 65.12,87.63 64.15,89.94 64.00,90.75 63.85,89.94 62.88,87.63 60.50,84.20 56.56,80.05 51.41,75.49 45.81,70.63 40.77,65.41 37.26,59.82 36.00,54.00 37.26,48.42 40.77,43.79 45.81,40.88 51.41,40.18 56.56,41.70 60.50,44.80 62.88,48.38 63.85,51.19" fill="var(--nt-red)" stroke="var(--nt-outline)" stroke-width="5.00" stroke-linejoin="round"/>
<text x="64.00" y="66.00" font-size="16.00" text-anchor="middle" dominant-baseline="central" fill="var(--nt-white)">B</text>
<ellipse cx="107.50" cy="106.50" rx="16.50" ry="16.50" fill="var(--nt-accent2)" stroke="var(--nt-outline)" stroke-width="3.00"/>
<ellipse cx="107.50" cy="106.50" rx="11.50" ry="11.50" fill="var(--nt-accent)"/>
<text x="107.50" y="106.50" font-size="16.00" text-anchor="middle" dominant-baseline="central" fill="var(--nt-accent2)">⌁</text>
</svg>
