<svg xmlns="http://www.w3.org/2000/svg" width="128" height="128" viewBox="0 0 128 128" role="img" aria-labelledby="title desc">
<title id="title">writing hand shadow 1</title>
<desc id="desc">Original Neutrino hands gestures emoji icon: writing hand with shadow styling.</desc>
<style>:root{--nt-primary:#FFD85A;--nt-secondary:#F4B94A;--nt-accent:#E94B66;--nt-accent2:#FFFFFF;--nt-outline:#3A2C20;--nt-feature:#2D2118;--nt-skin:#F2C6A0;--nt-skin2:#DFA06E;--nt-green:#65B95A;--nt-blue:#56A8E8;--nt-red:#E85B4B;--nt-purple:#9C70E8;--nt-orange:#F27B35;--nt-metal:#8E9BAA;--nt-brown:#8B5A2B;--nt-white:#FFF8E7;--nt-dark:#1A1613;--nt-bg:#FFFFFF} text{font-family:Arial,DejaVu Sans,sans-serif;font-weight:700}</style>
<ellipse cx="64.00" cy="106.00" rx="45.00" ry="14.00" fill="var(--nt-dark)" opacity="0.12"/>
<polygon points="64.00,52.44 64.11,51.64 64.84,49.53 66.62,46.85 69.58,44.52 73.44,43.39 77.64,43.91 81.43,46.09 84.06,49.56 85.00,53.75 84.06,58.11 81.43,62.31 77.64,66.22 73.44,69.87 69.58,73.29 66.62,76.40 64.84,78.98 64.11,80.70 64.00,81.31 63.89,80.70 63.16,78.98 61.38,76.40 58.42,73.29 54.56,69.87 50.36,66.22 46.57,62.31 43.94,58.11 43.00,53.75 43.94,49.56 46.57,46.09 50.36,43.91 54.56,43.39 58.42,44.52 61.38,46.85 63.16,49.53 63.89,51.64" fill="var(--nt-red)" stroke="var(--nt-outline)" stroke-width="4.00" stroke-linejoin="round"/>
<rect x="24.00" y="70.00" width="30.00" height="37.00" rx="10.00" ry="10.00" fill="var(--nt-skin)" stroke="var(--nt-outline)" stroke-width="4.00"/>
<rect x="74.00" y="70.00" width="30.00" height="37.00" rx="10.00" ry="10.00" fill="var(--nt-skin2)" stroke="var(--nt-outline)" stroke-width="4.00"/>
</svg>
