<svg xmlns="http://www.w3.org/2000/svg" width="128" height="128" viewBox="0 0 128 128" role="img" aria-labelledby="title desc">
<title id="title">joystick double 6</title>
<desc id="desc">Original Neutrino toys games emoji icon: joystick with double styling.</desc>
<style>:root{--nt-primary:#FFD85A;--nt-secondary:#F4B94A;--nt-accent:#E94B66;--nt-accent2:#FFFFFF;--nt-outline:#3A2C20;--nt-feature:#2D2118;--nt-skin:#F2C6A0;--nt-skin2:#DFA06E;--nt-green:#65B95A;--nt-blue:#56A8E8;--nt-red:#E85B4B;--nt-purple:#9C70E8;--nt-orange:#F27B35;--nt-metal:#8E9BAA;--nt-brown:#8B5A2B;--nt-white:#FFF8E7;--nt-dark:#1A1613;--nt-bg:#FFFFFF} text{font-family:Arial,DejaVu Sans,sans-serif;font-weight:700}</style>
<ellipse cx="64.00" cy="106.00" rx="45.00" ry="14.00" fill="var(--nt-dark)" opacity="0.12"/>
<rect x="39.00" y="22.00" width="51.00" height="84.00" rx="9.00" ry="9.00" fill="var(--nt-white)" stroke="var(--nt-outline)" stroke-width="5.00"/>
<polygon points="64.00,57.69 64.09,57.04 64.68,55.34 66.12,53.16 68.51,51.28 71.64,50.36 75.04,50.78 78.11,52.55 80.24,55.36 81.00,58.75 80.24,62.28 78.11,65.68 75.04,68.84 71.64,71.80 68.51,74.57 66.12,77.09 64.68,79.17 64.09,80.57 64.00,81.06 63.91,80.57 63.32,79.17 61.88,77.09 59.49,74.57 56.36,71.80 52.96,68.84 49.89,65.68 47.76,62.28 47.00,58.75 47.76,55.36 49.89,52.55 52.96,50.78 56.36,50.36 59.49,51.28 61.88,53.16 63.32,55.34 63.91,57.04" fill="var(--nt-red)"/>
<text x="54.00" y="39.00" font-size="14.00" text-anchor="middle" dominant-baseline="central" fill="var(--nt-feature)">J</text>
<ellipse cx="107.50" cy="106.50" rx="16.50" ry="16.50" fill="var(--nt-accent2)" stroke="var(--nt-outline)" stroke-width="3.00"/>
<ellipse cx="107.50" cy="106.50" rx="11.50" ry="11.50" fill="var(--nt-accent)"/>
<text x="107.50" y="106.50" font-size="16.00" text-anchor="middle" dominant-baseline="central" fill="var(--nt-accent2)">2</text>
</svg>
